<svg fill="none" xmlns="http://www.w3.org/2000/svg"><g clip-path="url(#clip0)"><path d="M27.971 8.52c-.798-.797-1.837-1.276-3.032-1.46-.184-1.194-.663-2.234-1.46-3.032-5.371-5.37-14.08-5.37-19.45 0-5.372 5.371-5.372 14.08 0 19.45.797.799 1.837 1.277 3.032 1.461.183 1.195.662 2.235 1.46 3.032 5.37 5.371 14.08 5.371 19.45 0 5.372-5.37 5.372-14.08 0-19.45z" fill="url(#paint0_linear)"/><path d="M12.55 12.55c4.01-4.009 8.873-6.03 12.39-5.49-.184-1.194-.663-2.234-1.46-3.032C20.334.883 13.43 2.687 8.06 8.058 2.687 13.43.883 20.334 4.03 23.48c.797.798 1.837 1.277 3.032 1.46-.542-3.516 1.48-8.379 5.489-12.388z" fill="#4BF9E8"/></g><defs><linearGradient id="paint0_linear" x1="5.97" y1="24.776" x2="25.815" y2="7.411" gradientUnits="userSpaceOnUse"><stop stop-color="#0000C9"/><stop offset=".128" stop-color="#2006C9"/><stop offset=".322" stop-color="#4A0EC8"/><stop offset=".511" stop-color="#6B14C8"/><stop offset=".691" stop-color="#8318C7"/><stop offset=".858" stop-color="#911BC7"/><stop offset="1" stop-color="#961CC7"/></linearGradient><clipPath id="clip0"><path fill="#fff" d="M0 0h32v32H0z"/></clipPath></defs></svg>