<svg width="24" height="24" viewBox="0 0 24 24" fill="none" xmlns="http://www.w3.org/2000/svg">
<path fill-rule="evenodd" clip-rule="evenodd" d="M15.856 5.21193C14.9383 4.2942 13.4503 4.2942 12.5326 5.21193L6.38078 11.3638C4.95537 12.7892 4.95537 15.1002 6.38078 16.5256L7.72428 17.8691C9.1497 19.2946 11.4607 19.2946 12.8862 17.8691L18.6844 12.0709C18.9383 11.817 19.3498 11.817 19.6037 12.0709C19.8575 12.3247 19.8575 12.7363 19.6037 12.9901L13.8054 18.7884C11.8723 20.7215 8.73814 20.7215 6.80504 18.7884L5.46154 17.4449C3.52845 15.5118 3.52844 12.3776 5.46154 10.4445L11.6134 4.29269C13.0388 2.86728 15.3498 2.86728 16.7752 4.29269L17.4824 4.9998C18.9078 6.42521 18.9078 8.73627 17.4824 10.1617L11.6841 15.96C10.9226 16.7215 9.68789 16.7215 8.92636 15.96L8.28997 15.3236C7.52845 14.562 7.52844 13.3274 8.28997 12.5658L13.7347 7.12112C13.9885 6.86728 14.4001 6.86728 14.6539 7.12112C14.9078 7.37496 14.9078 7.78652 14.6539 8.04036L9.20921 13.4851C8.95536 13.7389 8.95537 14.1505 9.20921 14.4043L9.8456 15.0407C10.0994 15.2946 10.511 15.2946 10.7648 15.0407L16.5631 9.24244C17.4808 8.32471 17.4808 6.83677 16.5631 5.91904L15.856 5.21193Z" fill="#712DD4"/>
</svg>
